<svg width="471" height="312" viewBox="0 0 471 312" fill="none" xmlns="http://www.w3.org/2000/svg">
<path d="M437.192 178.689C377.85 216.027 324.782 229.696 184.828 252.15C242.802 209.201 280.69 166.905 324.782 116.74C364.641 114.636 370.738 113.02 398.853 114.347C449.527 116.74 498.946 139.833 437.192 178.689Z" stroke="#7B13E3" stroke-width="9"/>
<path d="M294.903 14.3095C382.993 -18.7287 390.092 42.713 342.893 96.1578C336.689 103.184 330.673 110.037 324.781 116.741C280.689 166.906 242.801 209.202 184.827 252.15L187.386 305L132.339 284.477C121.043 289.831 109.967 293.887 99.2059 296.379C71.2809 304.382 49.8686 304.201 34.584 297.866C57.256 304.99 82.7125 285.606 88.497 281.477C118.606 259.986 162.508 205.049 186.64 85.7748C188.601 76.0862 189.363 67.9381 189.147 61.1597L198.766 55.6586C208.5 50.8754 218.313 46.2462 228.138 41.7858L257.514 28.9524C282.976 18.2542 271.678 23.02 294.903 14.3095Z" stroke="#0CBF13" stroke-width="9"/>
<path d="M186.641 85.7752C162.508 205.05 118.606 259.987 88.4971 281.477C82.7126 285.606 57.2561 304.99 34.5841 297.866C21.2657 292.346 16.3825 285 13.2288 279.821C-2.27809 254.355 5.83908 218.556 24.2211 182.005C49.8375 131.07 95.6465 78.741 126.214 51.1326C147.775 31.6588 180.147 22.0114 187.61 49.8617C188.479 53.1048 189.01 56.8564 189.147 61.1601C189.363 67.9385 188.601 76.0866 186.641 85.7752Z" stroke="#DB1474" stroke-width="9"/>
</svg>
