<svg width="1022" height="329" viewBox="0 0 1022 329" fill="none" xmlns="http://www.w3.org/2000/svg">
<path d="M442.151 183.689C382.809 221.027 329.741 234.696 189.787 257.15C247.761 214.201 285.649 171.905 329.741 121.74C369.6 119.636 375.697 118.02 403.812 119.347C454.486 121.74 503.905 144.833 442.151 183.689Z" stroke="#7B13E3" stroke-width="14"/>
<path d="M299.862 19.3095C387.952 -13.7287 395.051 47.713 347.852 101.158C341.648 108.184 335.632 115.037 329.74 121.741C285.648 171.906 247.76 214.202 189.786 257.15L192.345 310L137.298 289.477C126.002 294.831 114.926 298.887 104.165 301.379C76.2399 309.382 54.8276 309.201 39.543 302.866C62.215 309.99 87.6715 290.606 93.456 286.477C123.565 264.986 167.467 210.049 191.599 90.7748C193.56 81.0862 194.322 72.9381 194.106 66.1597L203.725 60.6586C213.459 55.8754 223.272 51.2462 233.097 46.7858L262.473 33.9524C287.935 23.2542 276.637 28.02 299.862 19.3095Z" stroke="#0CBF13" stroke-width="14"/>
<path d="M191.6 90.7752C167.467 210.05 123.565 264.987 93.4561 286.477C87.6716 290.606 62.2151 309.99 39.5431 302.866C26.2246 297.346 21.3414 290 18.1878 284.821C2.68089 259.355 10.7981 223.556 29.1801 187.005C54.7965 136.07 100.605 83.741 131.173 56.1326C152.734 36.6588 185.106 27.0114 192.569 54.8617C193.438 58.1048 193.969 61.8564 194.106 66.1601C194.322 72.9385 193.56 81.0866 191.6 90.7752Z" stroke="#DB1474" stroke-width="14"/>
<path d="M657.798 22.64C658.278 20.96 658.998 19.6 659.958 18.56C660.918 17.44 661.958 16.88 663.078 16.88C665.798 16.88 667.758 17.4 668.958 18.44C670.158 19.48 670.758 21.28 670.758 23.84C670.758 24.56 670.198 26.6 669.078 29.96C666.598 37.56 663.878 46.96 660.918 58.16C660.198 60.72 659.598 62.96 659.118 64.88C658.718 66.8 658.358 68.4 658.038 69.68C656.118 77.92 654.438 84.12 652.998 88.28C652.518 89.48 651.678 90.44 650.478 91.16C649.278 91.8 647.998 92.12 646.638 92.12C645.278 92.12 643.918 91.84 642.558 91.28C641.278 90.64 640.358 89.92 639.798 89.12C637.318 84.24 634.238 77.6 630.558 69.2C626.958 60.72 624.158 53.32 622.158 47C617.198 59.56 612.758 71.68 608.838 83.36C608.598 84.08 608.318 84.88 607.998 85.76C607.758 86.56 607.478 87.4 607.158 88.28C606.598 89.48 605.798 90.44 604.758 91.16C603.718 91.8 602.558 92.12 601.278 92.12C599.838 92.12 598.438 91.84 597.078 91.28C595.718 90.64 594.798 89.92 594.318 89.12C593.278 87.36 592.158 84.64 590.958 80.96C589.838 77.28 588.318 72.12 586.398 65.48L583.398 55.28C581.318 48.64 579.518 41.84 577.998 34.88C576.478 27.92 575.718 23.76 575.718 22.4C575.718 20.72 576.558 19.4 578.238 18.44C579.918 17.4 581.598 16.88 583.278 16.88C584.238 16.88 585.238 17.2 586.278 17.84C587.318 18.4 587.998 19.4 588.318 20.84C591.118 35.8 595.238 53.16 600.678 72.92C602.758 67.96 605.038 61.92 607.518 54.8C610.078 47.68 612.518 40.76 614.838 34.04L616.038 30.44C616.358 29.24 617.158 28.32 618.438 27.68C619.798 26.96 621.158 26.6 622.518 26.6C624.278 26.6 625.718 27.04 626.838 27.92C627.958 28.8 628.678 29.76 628.998 30.8C629.078 31.12 630.678 35.88 633.798 45.08C636.918 54.28 640.638 63.56 644.958 72.92C646.558 68.2 648.478 60.64 650.718 50.24L652.518 42.32C654.678 33.84 656.438 27.28 657.798 22.64ZM664.073 66.56C664.073 63.52 664.633 60.48 665.753 57.44C666.873 54.32 668.353 51.48 670.193 48.92C672.033 46.36 674.953 44.28 678.953 42.68C682.953 41 686.513 40.16 689.633 40.16C692.833 40.16 696.073 40.6 699.353 41.48C702.713 42.36 705.033 43.72 706.313 45.56C709.273 49.72 710.753 53.8 710.753 57.8C710.753 59.96 710.273 61.8 709.313 63.32C708.433 64.84 707.153 66.48 705.473 68.24C704.113 69.68 701.953 70.64 698.993 71.12C696.113 71.6 693.233 71.84 690.353 71.84C688.513 71.84 686.273 71.68 683.633 71.36C680.993 70.96 678.433 70.48 675.953 69.92C676.113 71.52 676.513 73.08 677.153 74.6C677.793 76.12 678.553 77.28 679.433 78.08C681.033 79.6 682.673 80.56 684.353 80.96C686.113 81.36 688.353 81.56 691.073 81.56C693.953 81.56 696.633 81.08 699.113 80.12C701.113 79.4 702.753 79.04 704.033 79.04C705.553 79.04 706.713 79.52 707.513 80.48C708.313 81.36 708.713 82.52 708.713 83.96C708.713 85.96 707.553 87.6 705.233 88.88C702.913 90.16 700.233 91.12 697.193 91.76C694.233 92.32 691.833 92.6 689.993 92.6C686.233 92.6 682.593 91.92 679.073 90.56C675.553 89.2 672.633 87.28 670.313 84.8C668.393 82.56 666.873 79.88 665.753 76.76C664.633 73.56 664.073 70.16 664.073 66.56ZM690.233 50.36C688.473 50.36 686.713 50.72 684.953 51.44C683.193 52.08 681.753 53 680.633 54.2C679.193 55.72 678.193 56.96 677.633 57.92C677.153 58.8 676.833 60.04 676.673 61.64C678.673 62.28 682.833 62.6 689.153 62.6C692.593 62.6 695.233 62.08 697.073 61.04C698.993 60 699.953 58.64 699.953 56.96C699.953 55.28 698.913 53.76 696.833 52.4C694.753 51.04 692.553 50.36 690.233 50.36ZM714.3 70.4C714.3 65.92 714.34 62.52 714.42 60.2L714.54 48.8C714.54 44.16 714.42 39.08 714.18 33.56C714.1 31.88 713.82 29.56 713.34 26.6C712.7 22.12 712.38 18.76 712.38 16.52C712.38 12.84 714.22 11 717.9 11C720.22 11 721.86 11.64 722.82 12.92C723.86 14.12 724.58 16.04 724.98 18.68C725.78 24.2 726.18 30.68 726.18 38.12C726.18 40.36 726.1 43.72 725.94 48.2C727.46 45.8 729.42 43.92 731.82 42.56C734.3 41.2 736.74 40.52 739.14 40.52C746.1 40.52 752.1 43.4 757.14 49.16C758.5 51.16 759.7 53.56 760.74 56.36C761.86 59.08 762.42 61.44 762.42 63.44C762.42 66.96 762.02 70.2 761.22 73.16C760.5 76.12 759.18 79 757.26 81.8C755.34 84.6 752.9 86.88 749.94 88.64C747.06 90.4 743.7 91.28 739.86 91.28C736.5 91.28 733.46 90.6 730.74 89.24C728.1 87.88 725.98 86.08 724.38 83.84C723.98 85.84 723.1 87.84 721.74 89.84C720.38 91.76 718.82 92.72 717.06 92.72C715.62 92.72 714.42 92.36 713.46 91.64C712.5 90.84 712.02 89.68 712.02 88.16C712.02 87.04 712.26 85.64 712.74 83.96C713.22 81.64 713.58 79.52 713.82 77.6C714.14 75.6 714.3 73.2 714.3 70.4ZM736.86 81.32C740.78 81.32 744.06 79.96 746.7 77.24C749.34 74.44 750.66 70.68 750.66 65.96C750.66 61.64 749.5 57.92 747.18 54.8C746.38 53.76 745.22 52.92 743.7 52.28C742.26 51.64 740.82 51.32 739.38 51.32C736.02 51.32 733.18 52.32 730.86 54.32C728.54 56.24 727.22 58.92 726.9 62.36C726.58 67 726.42 71 726.42 74.36C727.38 76.2 728.82 77.84 730.74 79.28C732.74 80.64 734.78 81.32 736.86 81.32ZM810.557 44C817.117 45.44 822.557 48.28 826.877 52.52C831.197 56.76 833.357 61.68 833.357 67.28C833.357 70.64 832.557 73.92 830.957 77.12C828.397 82.24 824.557 86.08 819.437 88.64C814.397 91.2 808.557 92.48 801.917 92.48C797.757 92.48 794.037 91.72 790.757 90.2C787.477 88.6 784.237 86.48 781.037 83.84C779.837 82.72 778.757 81.12 777.797 79.04C776.917 76.96 776.477 75.24 776.477 73.88C776.477 72.12 776.957 70.72 777.917 69.68C778.957 68.56 780.317 68 781.997 68C783.677 68 784.997 68.4 785.957 69.2C786.917 70 788.077 71.28 789.437 73.04C790.717 74.72 791.877 76.08 792.917 77.12C793.957 78.08 795.357 78.92 797.117 79.64C798.877 80.36 801.077 80.72 803.717 80.72C809.077 80.72 813.277 79.4 816.317 76.76C819.357 74.12 820.877 70.4 820.877 65.6C820.877 63.76 819.877 61.92 817.877 60.08C815.877 58.16 813.997 56.8 812.237 56C811.197 55.44 809.277 54.88 806.477 54.32C802.717 53.36 799.877 52.44 797.957 51.56C796.117 50.6 795.197 49.12 795.197 47.12C795.197 45.76 795.797 44.44 796.997 43.16C798.197 41.8 799.997 40.12 802.397 38.12C804.797 36.12 806.597 34.48 807.797 33.2C808.997 31.84 809.597 30.48 809.597 29.12C808.077 28.72 805.797 28.52 802.757 28.52C801.397 28.52 799.357 28.6 796.637 28.76C794.237 28.92 792.397 29 791.117 29C788.237 29 785.757 28.52 783.677 27.56C781.677 26.6 780.677 25.36 780.677 23.84C780.677 22.16 780.837 20.84 781.157 19.88C781.477 18.84 782.077 18.2 782.957 17.96C783.517 17.72 784.517 17.6 785.957 17.6C789.877 17.6 793.277 17.72 796.157 17.96C799.357 18.12 801.797 18.2 803.477 18.2L813.437 18.08C821.597 18.08 825.677 20.04 825.677 23.96C825.677 26.92 824.157 30.28 821.117 34.04C818.157 37.72 814.637 41.04 810.557 44Z" fill="#3A3838"/>
<path d="M648.798 122.16C649.918 122.16 651.278 122.92 652.878 124.44C654.558 125.88 655.398 127.12 655.398 128.16C655.398 133.04 655.238 139.72 654.918 148.2C654.838 150.28 654.758 152.8 654.678 155.76C654.598 158.64 654.558 162 654.558 165.84C654.558 178 655.278 186.96 656.718 192.72C656.638 194.64 655.878 196.04 654.438 196.92C652.998 197.72 651.558 198.12 650.118 198.12C646.918 198.12 644.798 197 643.758 194.76C642.798 192.52 642.318 189.32 642.318 185.16C642.318 169.72 642.478 155.52 642.798 142.56C633.598 152.8 626.438 161.4 621.318 168.36C621.318 168.36 620.598 168.84 619.158 169.8C617.798 171 616.678 171.6 615.798 171.6C613.718 171.6 611.998 171.08 610.638 170.04C609.278 169 607.958 167.48 606.678 165.48L600.918 157.32C596.918 151.72 593.998 147.48 592.158 144.6C592.158 151.96 592.518 161.96 593.238 174.6C593.798 181.88 594.078 187.36 594.078 191.04C594.078 192.96 593.598 194.6 592.638 195.96C591.678 197.24 590.158 197.88 588.078 197.88C585.998 197.88 584.278 197.48 582.918 196.68C581.638 195.88 580.958 194.68 580.878 193.08C580.958 191.72 580.998 189.48 580.998 186.36C580.998 180.12 580.798 172.52 580.398 163.56L580.158 157.08L579.918 148.68C579.838 146.2 579.758 143.32 579.678 140.04C579.598 136.68 579.558 133.04 579.558 129.12C579.558 124.32 582.158 121.92 587.358 121.92C588.958 121.92 590.558 122.32 592.158 123.12C593.838 123.92 595.078 125.08 595.878 126.6C596.518 129.4 598.878 134.04 602.958 140.52C607.038 147 611.038 153.08 614.958 158.76C618.478 154.28 621.358 150.92 623.598 148.68C627.438 144.76 630.598 141.12 633.078 137.76C635.638 134.4 638.398 130.36 641.358 125.64C642.078 124.68 643.118 123.88 644.478 123.24C645.838 122.52 647.278 122.16 648.798 122.16ZM715.414 192.24C715.414 194 714.454 195.48 712.534 196.68C710.694 197.88 708.974 198.48 707.374 198.48C704.334 198.48 701.894 198.12 700.054 197.4C698.294 196.6 696.654 195.16 695.134 193.08C693.054 194.92 690.214 196.32 686.614 197.28C683.014 198.16 679.694 198.6 676.654 198.6C671.694 198.6 667.614 197.28 664.414 194.64C661.214 191.92 659.614 187.96 659.614 182.76C659.614 180.52 660.214 178.48 661.414 176.64C662.614 174.72 664.254 173.04 666.334 171.6C668.654 170.08 671.294 168.92 674.254 168.12C677.214 167.24 680.294 166.8 683.494 166.8C685.174 166.8 687.174 167.12 689.494 167.76C691.814 168.4 693.614 169.08 694.894 169.8V167.88C694.894 163.56 693.854 160.6 691.774 159C689.694 157.32 686.334 156.48 681.694 156.48C680.334 156.48 678.974 156.76 677.614 157.32C676.334 157.88 674.854 158.64 673.174 159.6C670.934 160.8 668.814 161.4 666.814 161.4C666.094 161.4 665.414 160.92 664.774 159.96C664.134 158.92 663.814 158 663.814 157.2C663.814 154.88 664.894 152.88 667.054 151.2C669.294 149.52 671.934 148.28 674.974 147.48C678.014 146.6 680.734 146.16 683.134 146.16C685.534 146.16 688.294 146.64 691.414 147.6C694.534 148.48 697.094 149.72 699.094 151.32C701.494 153.4 703.334 155.84 704.614 158.64C705.974 161.36 706.654 164.36 706.654 167.64C706.654 168.68 706.574 170.24 706.414 172.32C706.254 174.56 706.174 176.48 706.174 178.08C706.174 178.8 706.094 179.88 705.934 181.32C705.774 183.08 705.694 184.48 705.694 185.52C705.694 186.48 706.054 187.32 706.774 188.04C707.494 188.68 708.334 189 709.294 189L712.654 188.88C713.534 188.88 714.214 189.2 714.694 189.84C715.174 190.48 715.414 191.28 715.414 192.24ZM676.774 189.12C680.214 189.12 683.094 188.76 685.414 188.04C687.734 187.32 690.534 186 693.814 184.08C694.134 182.72 694.334 180.92 694.414 178.68C690.014 176.6 686.374 175.56 683.494 175.56C680.214 175.56 677.294 176.16 674.734 177.36C672.174 178.56 670.894 180.68 670.894 183.72C670.894 185.24 671.534 186.52 672.814 187.56C674.094 188.6 675.414 189.12 676.774 189.12ZM730.352 193.2C730.352 194.56 729.832 195.76 728.792 196.8C727.752 197.84 726.472 198.36 724.952 198.36C722.552 198.36 720.792 197.92 719.672 197.04C718.552 196.08 717.992 194.36 717.992 191.88C717.992 188.92 717.912 185.04 717.752 180.24C717.592 176.24 717.512 172.88 717.512 170.16C717.512 168.88 717.592 167.2 717.752 165.12C717.912 163.2 717.992 161.76 717.992 160.8C717.752 159.28 717.152 158.04 716.192 157.08C715.232 156.04 713.992 155.52 712.472 155.52C711.752 155.52 711.152 155.2 710.672 154.56C710.192 153.84 709.952 153.12 709.952 152.4C709.952 150.56 710.672 149.16 712.112 148.2C713.632 147.24 715.432 146.76 717.512 146.76C721.832 146.76 724.832 149.32 726.512 154.44C728.592 152.04 730.952 150.12 733.592 148.68C736.312 147.16 738.912 146.4 741.392 146.4C744.352 146.4 747.032 147.2 749.432 148.8C751.912 150.4 753.152 152.56 753.152 155.28C753.152 156.8 752.472 158.36 751.112 159.96C749.832 161.56 748.512 162.36 747.152 162.36C746.432 162.36 745.792 162.2 745.232 161.88C744.752 161.48 744.152 160.92 743.432 160.2C742.632 159.4 741.952 158.84 741.392 158.52C740.832 158.12 740.192 157.92 739.472 157.92C738.192 157.92 736.992 158.12 735.872 158.52C734.752 158.92 733.992 159.4 733.592 159.96C732.312 161.96 731.352 163.76 730.712 165.36C730.152 166.96 729.872 168.68 729.872 170.52C729.872 171.88 729.832 172.96 729.752 173.76L729.632 180.6C729.632 181.64 729.672 182.8 729.752 184.08C729.832 185.36 729.912 186.32 729.992 186.96C730.232 189.12 730.352 191.2 730.352 193.2ZM797.607 187.08C798.967 188.12 799.887 189.12 800.367 190.08C800.847 191.04 801.087 192.24 801.087 193.68C801.087 194.88 800.447 196 799.167 197.04C797.967 198 796.847 198.48 795.807 198.48C794.927 198.48 793.887 198.2 792.687 197.64C791.487 197.08 790.567 196.44 789.927 195.72C789.047 195 787.327 193.24 784.767 190.44C782.287 187.64 780.447 185.44 779.247 183.84C776.367 180.24 774.927 178.44 774.927 178.44L770.727 173.28L763.047 179.52L763.527 192.6C763.527 194.76 762.967 196.28 761.847 197.16C760.807 198.04 759.767 198.48 758.727 198.48C757.207 198.48 755.847 198.2 754.647 197.64C753.527 197.08 752.847 196.44 752.607 195.72C751.727 192.52 751.287 188.32 751.287 183.12C751.287 173.36 751.447 165.56 751.767 159.72C752.087 152.44 752.247 145.56 752.247 139.08C752.247 137.08 752.007 134.32 751.527 130.8C751.447 130.08 751.327 128.92 751.167 127.32C751.007 125.72 750.927 124.28 750.927 123C750.927 121.16 751.527 119.72 752.727 118.68C754.007 117.64 755.647 117.12 757.647 117.12C759.247 117.12 760.527 117.64 761.487 118.68C762.527 119.64 763.047 121 763.047 122.76C763.047 125.4 763.127 128.88 763.287 133.2C763.447 137.52 763.527 140.68 763.527 142.68C763.527 145.16 763.447 148.48 763.287 152.64C763.127 154.88 763.047 156.56 763.047 157.68C763.047 161.2 763.087 164.12 763.167 166.44C766.047 163.48 769.887 160.04 774.687 156.12C779.567 152.12 783.367 149.32 786.087 147.72C789.127 145.88 790.967 144.96 791.607 144.96C793.287 144.96 794.727 145.32 795.927 146.04C797.127 146.76 797.727 147.84 797.727 149.28C797.727 150.72 797.527 151.84 797.127 152.64C796.727 153.36 796.007 154.12 794.967 154.92L779.487 166.2C782.927 170.44 786.487 174.76 790.167 179.16C793.847 183.48 796.327 186.12 797.607 187.08ZM798.659 170.52C798.659 165.64 799.739 161.6 801.899 158.4C804.059 155.12 807.059 152.04 810.899 149.16C812.019 148.36 813.899 147.68 816.539 147.12C819.179 146.48 821.499 146.16 823.499 146.16C825.899 146.16 828.419 146.68 831.059 147.72C833.779 148.68 835.979 149.8 837.659 151.08C840.619 153.24 842.659 155.76 843.779 158.64C844.899 161.44 845.459 164.8 845.459 168.72C845.459 170.4 844.499 172.04 842.579 173.64C840.739 175.16 838.739 175.92 836.579 175.92L832.019 175.8C829.699 175.8 826.379 175.88 822.059 176.04L819.539 176.16C817.779 176.32 816.459 176.4 815.579 176.4C814.299 176.4 812.539 176.24 810.299 175.92C810.619 179.68 812.019 182.64 814.499 184.8C816.979 186.88 819.659 187.92 822.539 187.92C827.579 187.92 831.099 186.92 833.099 184.92C834.779 183.72 835.899 182.96 836.459 182.64C837.019 182.32 837.899 182.16 839.099 182.16C840.379 182.16 841.499 182.76 842.459 183.96C843.419 185.16 843.899 186.36 843.899 187.56C843.899 188.92 843.059 190.32 841.379 191.76C839.779 193.12 837.579 194.56 834.779 196.08C833.259 196.72 831.179 197.28 828.539 197.76C825.899 198.24 823.699 198.48 821.939 198.48C819.139 198.48 816.019 197.68 812.579 196.08C809.139 194.4 806.579 192.56 804.899 190.56C803.219 188.56 801.739 185.72 800.459 182.04C799.259 178.36 798.659 174.52 798.659 170.52ZM822.539 167.28C828.219 167.28 832.379 167.08 835.019 166.68C834.859 164.36 834.139 162.48 832.859 161.04C831.579 159.52 829.819 158.24 827.579 157.2C826.859 156.88 826.219 156.64 825.659 156.48C825.099 156.32 824.459 156.24 823.739 156.24C820.059 156.24 816.939 157.24 814.379 159.24C811.899 161.24 810.419 163.8 809.939 166.92C813.939 167.16 818.139 167.28 822.539 167.28ZM846.252 156.48C845.132 156.32 844.212 155.84 843.492 155.04C842.852 154.24 842.532 153.28 842.532 152.16C842.532 151.6 842.652 151 842.892 150.36C843.212 149.72 843.652 149.16 844.212 148.68C845.252 147.8 846.652 146.96 848.412 146.16C850.252 145.44 851.572 144.56 852.372 143.52C853.172 142.48 853.572 140.52 853.572 137.64C853.572 136.44 853.492 135.4 853.332 134.52C853.252 133.64 853.212 132.96 853.212 132.48C853.212 130.72 853.852 129.4 855.132 128.52C856.412 127.64 857.892 127.2 859.572 127.2C861.652 127.2 863.052 127.72 863.772 128.76C864.572 129.8 864.972 131.72 864.972 134.52C864.972 137.24 864.852 139.6 864.612 141.6C864.372 143.52 863.852 145.24 863.052 146.76C864.172 146.76 866.012 146.68 868.572 146.52C872.092 146.36 874.532 146.28 875.892 146.28C877.252 146.28 878.452 146.64 879.492 147.36C880.532 148 881.052 148.92 881.052 150.12C881.052 151.8 880.692 153.04 879.972 153.84C879.252 154.64 878.212 155.16 876.852 155.4C873.572 156.28 868.932 156.8 862.932 156.96C862.772 160.08 862.692 163.48 862.692 167.16C862.692 173.32 863.052 178.04 863.772 181.32C864.252 183.88 865.052 185.76 866.172 186.96C867.372 188.08 869.132 188.64 871.452 188.64C872.652 188.64 873.612 188.48 874.332 188.16C875.132 187.84 875.572 187.64 875.652 187.56C876.612 187 877.492 186.72 878.292 186.72C879.412 186.72 880.212 187.08 880.692 187.8C881.252 188.52 881.532 189.48 881.532 190.68C881.532 192.92 880.332 194.8 877.932 196.32C875.532 197.76 872.452 198.48 868.692 198.48C864.452 198.48 860.852 197.24 857.892 194.76C855.012 192.2 853.292 188.84 852.732 184.68C851.932 180.92 851.532 175.64 851.532 168.84C851.532 165.88 851.692 161.92 852.012 156.96L846.252 156.48ZM886.21 120.96C889.01 121.2 891.41 121.96 893.41 123.24C895.49 124.44 896.53 126.28 896.53 128.76C896.53 130.6 895.69 132.08 894.01 133.2C892.33 134.24 890.25 134.76 887.77 134.76C885.45 134.76 883.85 134.16 882.97 132.96C882.09 131.76 881.65 130.52 881.65 129.24C881.65 126.92 881.93 124.96 882.49 123.36C883.05 121.68 884.29 120.88 886.21 120.96ZM883.81 170.52V167.04C883.81 163.04 883.61 159.4 883.21 156.12C882.89 152.76 882.69 150.68 882.61 149.88C882.69 149 883.29 148.16 884.41 147.36C885.53 146.56 886.53 146.16 887.41 146.16C888.93 146.16 890.45 146.48 891.97 147.12C893.57 147.68 894.57 148.4 894.97 149.28C895.37 152.24 895.57 154.52 895.57 156.12C895.57 159.64 895.73 165.4 896.05 173.4L896.17 178.08L896.41 182.64C896.49 183.92 896.57 185.44 896.65 187.2C896.73 188.96 896.77 190.96 896.77 193.2C896.77 194.72 896.01 196 894.49 197.04C893.05 198.08 891.53 198.6 889.93 198.6C887.61 198.6 885.97 198.08 885.01 197.04C884.13 196 883.69 194.36 883.69 192.12L883.81 170.52ZM954.718 188.76C955.118 188.92 955.758 189.12 956.638 189.36C957.518 189.6 958.158 189.84 958.558 190.08C958.958 190.32 959.158 190.68 959.158 191.16C959.238 193.08 958.518 194.68 956.998 195.96C955.558 197.16 953.838 197.76 951.838 197.76C948.718 197.76 946.278 196.92 944.518 195.24C942.758 193.56 941.478 191 940.678 187.56C940.358 186.2 940.198 184.32 940.198 181.92C940.198 180.56 940.278 178.36 940.438 175.32C940.598 172.12 940.678 169.56 940.678 167.64C940.678 164.84 939.878 162.4 938.278 160.32C936.758 158.16 934.598 157.08 931.798 157.08C930.118 157.08 928.358 157.6 926.518 158.64C924.678 159.6 923.398 160.8 922.678 162.24C921.478 164.56 920.638 167.08 920.158 169.8C919.278 174.6 918.838 179.6 918.838 184.8C918.838 187.28 918.878 189.2 918.958 190.56C918.958 190.88 918.958 191.52 918.958 192.48C919.038 193.36 918.958 194.2 918.718 195C918.558 195.72 918.238 196.4 917.758 197.04C917.358 197.44 916.718 197.76 915.838 198C915.038 198.32 914.278 198.48 913.558 198.48C912.438 198.48 911.038 198 909.358 197.04C907.678 196.08 906.718 195 906.478 193.8L906.358 191.76C906.358 191.04 906.438 190.2 906.598 189.24C907.558 183.64 908.038 178.76 908.038 174.6C908.038 172.76 907.998 171.32 907.918 170.28L907.798 164.64C907.798 162.72 907.318 160.88 906.358 159.12C905.398 157.28 904.278 156.36 902.998 156.36C902.598 156.36 902.038 156.52 901.318 156.84C900.598 157.08 899.998 157.2 899.518 157.2C898.718 157.2 897.838 156.8 896.878 156C895.998 155.2 895.558 154.36 895.558 153.48C895.558 151.8 896.118 150.44 897.238 149.4C898.438 148.44 899.598 147.68 900.718 147.12C901.918 146.56 903.278 146.28 904.798 146.28C906.078 146.28 907.118 146.4 907.918 146.64C908.718 146.88 909.798 147.4 911.158 148.2C911.878 148.6 912.718 149.48 913.678 150.84C914.638 152.2 915.438 154.12 916.078 156.6C918.158 152.76 920.718 150.08 923.758 148.56C926.878 146.96 930.838 146.16 935.638 146.16C937.478 146.16 939.438 146.76 941.518 147.96C943.678 149.16 945.518 150.56 947.038 152.16C948.478 153.92 949.678 156.12 950.638 158.76C951.598 161.32 952.078 163.64 952.078 165.72C952.078 166.92 951.998 168.88 951.838 171.6C951.598 173.76 951.478 176.04 951.478 178.44C951.478 184.04 952.558 187.48 954.718 188.76ZM1003.13 167.88C1003.13 171.56 1002.21 174.68 1000.37 177.24C998.53 179.72 996.09 181.92 993.05 183.84C988.89 186.08 984.05 187.24 978.53 187.32C978.21 188.28 978.05 189.28 978.05 190.32C978.05 191.28 978.57 192 979.61 192.48C980.73 192.88 982.69 193.2 985.49 193.44C987.81 193.6 990.41 194.12 993.29 195C996.25 195.8 998.57 196.72 1000.25 197.76C1002.33 199.28 1003.77 200.92 1004.57 202.68C1005.45 204.44 1005.89 206.64 1005.89 209.28C1005.89 212.72 1004.29 215.6 1001.09 217.92C997.97 220.32 994.29 222.08 990.05 223.2C985.81 224.32 982.09 224.88 978.89 224.88C975.05 224.88 971.77 224.4 969.05 223.44C966.41 222.56 963.89 221.32 961.49 219.72C959.81 218.52 958.49 217 957.53 215.16C956.57 213.32 956.09 211.4 956.09 209.4C956.09 207.4 956.73 205.48 958.01 203.64C959.37 201.8 961.01 200.2 962.93 198.84C964.85 197.56 966.65 196.68 968.33 196.2C967.69 195.4 967.21 194.72 966.89 194.16C966.65 193.52 966.53 192.8 966.53 192C966.53 189.28 967.21 187 968.57 185.16C964.73 183.88 961.69 181.6 959.45 178.32C957.29 175.04 956.21 171.2 956.21 166.8C956.21 163.92 956.89 161.32 958.25 159C959.61 156.6 961.49 154.32 963.89 152.16C967.97 148.48 973.61 146.64 980.81 146.64C981.77 146.64 983.09 146.8 984.77 147.12C986.45 147.44 988.09 147.88 989.69 148.44C992.25 147.32 995.25 146.16 998.69 144.96C1002.13 143.76 1004.45 143.16 1005.65 143.16C1007.49 143.16 1008.85 143.48 1009.73 144.12C1010.69 144.68 1011.17 145.96 1011.17 147.96C1011.17 149.8 1010.09 151.12 1007.93 151.92C1005.85 152.72 1002.69 153.48 998.45 154.2C1001.57 157.96 1003.13 162.52 1003.13 167.88ZM978.17 177.48C982.81 177.48 986.17 176.52 988.25 174.6C990.41 172.68 991.49 169.8 991.49 165.96C991.49 159.64 987.77 156.48 980.33 156.48C977.45 156.48 975.17 156.8 973.49 157.44C971.89 158.08 970.57 159.16 969.53 160.68C968.09 162.6 967.37 165.2 967.37 168.48C967.37 171.04 968.41 173.2 970.49 174.96C972.65 176.64 975.21 177.48 978.17 177.48ZM967.37 210.24C967.37 211.6 968.61 212.76 971.09 213.72C973.65 214.76 976.37 215.28 979.25 215.28C982.45 215.28 985.73 214.68 989.09 213.48C992.53 212.36 994.25 210.84 994.25 208.92C994.25 206.12 991.77 204.32 986.81 203.52C985.05 203.2 982.49 202.6 979.13 201.72C978.73 201.64 978.25 201.52 977.69 201.36C977.21 201.2 976.69 201.04 976.13 200.88C974.37 201.52 972.45 202.84 970.37 204.84C968.37 206.92 967.37 208.72 967.37 210.24Z" fill="#3A3838"/>
<path d="M632.718 275.44C633.198 273.68 633.718 271.28 634.278 268.24C635.078 264.64 635.718 261.92 636.198 260.08C636.678 258.24 637.318 256.68 638.118 255.4C638.998 253.96 639.758 253 640.398 252.52C641.118 252.04 641.878 251.8 642.678 251.8C646.838 251.8 648.918 253.4 648.918 256.6C648.918 258.2 648.278 261.2 646.998 265.6C642.758 278.4 639.718 288.32 637.878 295.36C637.078 298.32 635.878 300.6 634.278 302.2C632.678 303.72 630.518 304.48 627.798 304.48C626.438 304.48 625.038 303.84 623.598 302.56C622.238 301.2 621.118 299.56 620.238 297.64L618.918 294.4C616.678 288.72 614.998 284.36 613.878 281.32C612.838 278.2 612.158 275.4 611.838 272.92L610.758 276.76C608.838 283.64 606.838 290.04 604.758 295.96C603.718 299 602.438 301.2 600.918 302.56C599.398 303.84 597.438 304.48 595.038 304.48C593.598 304.48 592.318 304.16 591.198 303.52C590.158 302.88 589.158 301.8 588.198 300.28C586.918 298.2 585.678 295.4 584.478 291.88C583.358 288.36 581.718 282.88 579.558 275.44C578.518 272.24 577.558 268.88 576.678 265.36C575.798 261.76 575.358 259.24 575.358 257.8C575.358 256.12 575.798 254.8 576.678 253.84C577.558 252.88 578.838 252.4 580.518 252.4C582.678 252.4 584.198 252.84 585.078 253.72C585.958 254.52 586.758 255.76 587.478 257.44C587.878 260.32 588.758 264.4 590.118 269.68L592.758 280.96C592.918 281.84 593.398 283.68 594.198 286.48L595.158 289.96C596.918 286.2 598.398 282.6 599.598 279.16C600.798 275.72 602.118 271.48 603.558 266.44C603.638 266.12 604.438 263.36 605.958 258.16C606.998 256.48 607.918 255.24 608.718 254.44C609.518 253.56 610.318 253.12 611.118 253.12C612.718 253.12 614.078 253.64 615.198 254.68C616.398 255.64 617.278 256.84 617.838 258.28C618.798 261.4 619.638 264.24 620.358 266.8C620.678 267.84 621.398 270.36 622.518 274.36C623.718 278.28 624.798 281.6 625.758 284.32C626.718 287.04 627.518 288.96 628.158 290.08L632.718 275.44ZM654.278 226.96C657.078 227.2 659.518 227.96 661.598 229.24C663.678 230.44 664.718 232.28 664.718 234.76C664.718 236.6 663.838 238.08 662.078 239.2C660.398 240.24 658.358 240.76 655.958 240.76C653.638 240.76 652.038 240.16 651.158 238.96C650.278 237.76 649.838 236.52 649.838 235.24C649.838 232.84 650.078 230.84 650.558 229.24C651.118 227.64 652.358 226.88 654.278 226.96ZM663.878 280.12V283.6C663.878 286.72 663.958 289.68 664.118 292.48C664.358 295.2 664.638 297.96 664.958 300.76C664.878 301.56 664.278 302.4 663.158 303.28C662.038 304.08 661.038 304.48 660.158 304.48C658.638 304.48 657.078 304.2 655.478 303.64C653.958 303 653.038 302.24 652.718 301.36C652.238 298.8 651.998 296.52 651.998 294.52C651.998 287.96 651.798 280.6 651.398 272.44C651.078 265.24 650.918 260.2 650.918 257.32C650.918 255.88 651.638 254.64 653.078 253.6C654.518 252.56 656.038 252.04 657.638 252.04C659.958 252.04 661.558 252.56 662.438 253.6C663.398 254.64 663.878 256.28 663.878 258.52V280.12ZM668.061 262.24C666.941 262.08 666.021 261.64 665.301 260.92C664.661 260.12 664.341 259.16 664.341 258.04C664.341 256.6 664.901 255.4 666.021 254.44C666.261 254.2 666.661 254 667.221 253.84C667.781 253.6 668.221 253.4 668.541 253.24C670.301 252.68 671.421 252.24 671.901 251.92C673.741 250.8 674.981 248.96 675.621 246.4C676.261 243.36 676.661 241.28 676.821 240.16C676.981 238.4 677.541 237.08 678.501 236.2C679.541 235.24 680.821 234.76 682.341 234.76C684.341 234.76 685.741 235.28 686.541 236.32C687.341 237.36 687.741 239.28 687.741 242.08C687.741 245.76 686.861 249.24 685.101 252.52C686.221 252.52 688.061 252.44 690.621 252.28C694.461 252.12 697.141 252.04 698.661 252.04C700.021 252.04 701.181 252.4 702.141 253.12C703.181 253.76 703.701 254.72 703.701 256C703.701 259.04 702.301 260.84 699.501 261.4C696.941 262.12 692.301 262.56 685.581 262.72C685.021 270.56 684.741 276.76 684.741 281.32C684.741 284.12 684.861 286.12 685.101 287.32C685.581 289.8 686.381 291.64 687.501 292.84C688.701 293.96 690.461 294.52 692.781 294.52C693.901 294.52 695.581 294.24 697.821 293.68C699.181 293.28 700.261 293.08 701.061 293.08C702.101 293.08 702.901 293.44 703.461 294.16C704.021 294.88 704.301 295.84 704.301 297.04C704.301 299.2 702.901 301 700.101 302.44C697.301 303.8 693.981 304.48 690.141 304.48C687.741 304.48 685.381 303.92 683.061 302.8C680.741 301.6 678.781 300.16 677.181 298.48C676.861 298.32 676.381 297.44 675.741 295.84C675.181 294.24 674.621 292.48 674.061 290.56C673.821 289.6 673.701 287.28 673.701 283.6C673.701 280.08 673.941 274 674.421 265.36L674.541 262.72C673.981 262.72 672.941 262.68 671.421 262.6C669.901 262.44 668.781 262.32 668.061 262.24ZM716.664 227.92C716.664 230 716.624 232.44 716.544 235.24C716.464 237.96 716.384 240.04 716.304 241.48C716.064 245.56 715.944 249.64 715.944 253.72C715.944 259.08 716.064 263.4 716.304 266.68C718.144 262.12 720.744 258.68 724.104 256.36C727.464 253.96 731.304 252.76 735.624 252.76C738.584 252.76 741.344 254.08 743.904 256.72C746.464 259.36 748.104 262.44 748.824 265.96C748.904 266.36 748.944 266.96 748.944 267.76C748.944 268.72 748.864 270.24 748.704 272.32C748.464 274 748.344 275.68 748.344 277.36C748.344 281.68 748.504 285.04 748.824 287.44C749.144 289.76 749.824 291.68 750.864 293.2C751.904 294.64 753.544 295.8 755.784 296.68C756.664 297 757.264 297.44 757.584 298C757.984 298.48 758.184 299.24 758.184 300.28C758.184 301.72 757.424 302.8 755.904 303.52C754.464 304.24 753.064 304.6 751.704 304.6C748.904 304.6 746.384 303.84 744.144 302.32C741.904 300.8 740.224 298.8 739.104 296.32C738.304 294.64 737.784 292.64 737.544 290.32C737.304 288 737.184 285.28 737.184 282.16L737.304 271.72C737.304 266.04 735.464 263.2 731.784 263.2C729.144 263.2 726.584 265.36 724.104 269.68C721.624 274 719.624 279.08 718.104 284.92C716.584 290.76 715.824 295.56 715.824 299.32C715.824 301.08 715.264 302.4 714.144 303.28C713.104 304.08 712.024 304.48 710.904 304.48C709.144 304.48 707.544 303.96 706.104 302.92C704.664 301.8 703.944 300.56 703.944 299.2C704.504 293.2 704.784 283.16 704.784 269.08C704.784 266.52 704.584 257.04 704.184 240.64L703.824 229.6C703.824 227.84 704.624 226.32 706.224 225.04C707.824 223.68 709.624 223 711.624 223C713.384 223 714.664 223.4 715.464 224.2C716.264 225 716.664 226.24 716.664 227.92ZM778.324 284.08C778.324 287.76 778.844 290.44 779.884 292.12C780.924 293.72 782.564 294.52 784.804 294.52C790.404 294.52 794.204 292.24 796.204 287.68C798.284 283.12 799.324 276.88 799.324 268.96C799.324 265.12 799.084 259.76 798.604 252.88C798.124 246.32 797.884 241.44 797.884 238.24C789.324 238.24 785.044 236.56 785.044 233.2C785.044 231.2 785.364 229.88 786.004 229.24C786.724 228.6 787.804 228.28 789.244 228.28C790.124 228.28 791.084 228.36 792.124 228.52C793.164 228.6 793.924 228.64 794.404 228.64C796.004 228.88 797.524 229 798.964 229C801.604 229 804.044 228.88 806.284 228.64C809.164 228.48 811.324 228.4 812.764 228.4C815.644 228.4 817.644 228.68 818.764 229.24C819.964 229.8 820.564 230.88 820.564 232.48C820.564 234.16 820.124 235.36 819.244 236.08C818.444 236.72 817.244 237.2 815.644 237.52L810.124 238.12C810.044 243.4 810.364 249.72 811.084 257.08C811.164 258.2 811.324 260.32 811.564 263.44C811.804 266.48 811.924 269.28 811.924 271.84C811.924 282.24 809.724 290.28 805.324 295.96C800.924 301.56 794.364 304.36 785.644 304.36C780.204 304.36 775.644 302.8 771.964 299.68C768.364 296.48 766.564 291.72 766.564 285.4C766.564 283.64 767.204 282.24 768.484 281.2C769.764 280.08 771.484 279.52 773.644 279.52C775.164 279.52 776.324 280.04 777.124 281.08C777.924 282.12 778.324 283.12 778.324 284.08ZM866.672 265.48C867.312 266.6 867.832 268.24 868.232 270.4C868.632 272.48 868.832 274.36 868.832 276.04C868.832 278.2 868.592 280.6 868.112 283.24C867.632 285.88 867.192 287.92 866.792 289.36C861.272 299.44 853.112 304.48 842.312 304.48C838.312 304.48 834.232 303.16 830.072 300.52C825.912 297.88 823.032 294.84 821.432 291.4C819.272 284.6 818.192 280.24 818.192 278.32C818.192 275.12 818.872 271.72 820.232 268.12C821.672 264.52 823.472 261.4 825.632 258.76C827.072 256.92 829.552 255.36 833.072 254.08C836.592 252.72 839.792 252.04 842.672 252.04C848.272 252.04 852.992 253.12 856.832 255.28C860.752 257.36 864.032 260.76 866.672 265.48ZM856.232 284.8C856.632 284 856.832 281.32 856.832 276.76C856.832 274.44 856.392 272.16 855.512 269.92C854.712 267.68 853.512 265.76 851.912 264.16C851.752 264 851.312 263.76 850.592 263.44C849.872 263.04 848.872 262.68 847.592 262.36C846.392 261.96 844.992 261.76 843.392 261.76C838.912 261.76 835.632 263.56 833.552 267.16C831.472 270.76 830.432 274.84 830.432 279.4C830.432 280.12 830.672 281.6 831.152 283.84C831.632 286.08 831.992 287.52 832.232 288.16C832.872 289.28 834.152 290.6 836.072 292.12C838.072 293.56 840.232 294.28 842.552 294.28C846.152 294.28 848.992 293.44 851.072 291.76C853.232 290 854.952 287.68 856.232 284.8ZM882.61 328.48C879.57 328.48 877.01 327.96 874.93 326.92C872.93 325.96 871.41 324.76 870.37 323.32C869.41 321.96 868.93 320.76 868.93 319.72C868.93 318.36 869.41 317.28 870.37 316.48C871.33 315.76 872.49 315.4 873.85 315.4C874.65 315.4 875.41 315.64 876.13 316.12C876.85 316.6 877.25 316.88 877.33 316.96C877.89 317.36 878.45 317.68 879.01 317.92C879.57 318.24 880.17 318.4 880.81 318.4C882.57 318.4 884.01 317.24 885.13 314.92C886.25 312.6 887.37 308.84 888.49 303.64C884.89 298.36 881.89 293.08 879.49 287.8L876.73 281.44C876.33 280.48 875.21 278 873.37 274C871.61 269.92 869.85 266.32 868.09 263.2C866.97 260.96 866.41 259.44 866.41 258.64C866.41 256.64 867.09 255.16 868.45 254.2C869.89 253.24 871.53 252.76 873.37 252.76C874.65 252.76 875.61 253.04 876.25 253.6C876.97 254.08 877.77 255 878.65 256.36C880.97 260.2 883.49 265.96 886.21 273.64C887.81 278.04 889.09 281.4 890.05 283.72C891.01 285.96 892.17 288.24 893.53 290.56C894.89 287.44 896.61 282.12 898.69 274.6C899.97 270.28 901.01 266.84 901.81 264.28C902.69 261.64 903.65 259.24 904.69 257.08C905.41 255.64 906.29 254.48 907.33 253.6C908.45 252.72 909.69 252.28 911.05 252.28C912.41 252.28 913.85 252.8 915.37 253.84C916.97 254.8 917.77 255.96 917.77 257.32C917.77 258.12 917.49 259.08 916.93 260.2C913.81 267.4 911.05 274.2 908.65 280.6C906.33 286.92 904.09 293.88 901.93 301.48C900.65 305.72 899.29 309.76 897.85 313.6C896.49 317.44 895.53 319.8 894.97 320.68C893.37 322.92 891.57 324.76 889.57 326.2C887.57 327.72 885.25 328.48 882.61 328.48Z" fill="#564E69"/>
</svg>
